<svg xmlns="http://www.w3.org/2000/svg" viewBox="0 0 379.41 60"><g id="Layer_2" data-name="Layer 2"><g id="Layer_1-2" data-name="Layer 1"><g id="d07b0af0-997f-4cc1-9bcc-048b0ab2f4fd"><path d="M8.88,23a14.32,14.32,0,0,1,4.44-10.84A15.23,15.23,0,0,1,24.25,8a15.06,15.06,0,0,1,11,4.22A14.41,14.41,0,0,1,39.62,23a14.28,14.28,0,0,1-4.45,10.83,15.21,15.21,0,0,1-10.92,4.22,15.23,15.23,0,0,1-10.93-4.22A14.31,14.31,0,0,1,8.88,23ZM0,23A21.56,21.56,0,0,0,7,39.44,24.14,24.14,0,0,0,24.25,46a24.3,24.3,0,0,0,17.27-6.57A21.53,21.53,0,0,0,48.5,23,21.51,21.51,0,0,0,41.44,6.57,24.28,24.28,0,0,0,24.25,0,24.35,24.35,0,0,0,7.15,6.57,21.56,21.56,0,0,0,0,23Zm62.8,5a5.17,5.17,0,0,1,1.29-3.64A4.93,4.93,0,0,1,67.91,23q4.53,0,4.53,4.4V44.77h8.39V28a5.17,5.17,0,0,1,1.29-3.64A5,5,0,0,1,85.94,23q4.53,0,4.53,4.4V44.77h8.39V26.11c0-3.55-.89-6.21-2.62-8s-4.13-2.62-7.19-2.62a10.57,10.57,0,0,0-5.47,1.38,10.26,10.26,0,0,0-3.86,3.82c-1.6-3.47-4.49-5.2-8.71-5.2-3.28,0-6,1.6-8.21,4.88V16.17h-9v28.6h9Zm63.6-.89H112.54A6.09,6.09,0,0,1,115.16,23a7.83,7.83,0,0,1,4.71-1.51C123.69,21.45,125.86,23.32,126.4,27.09Zm-13.91,5.55H135.1a24.63,24.63,0,0,0,.13-2.75c0-4.44-1.37-8-4.17-10.66s-6.49-4-11.19-4-8.62,1.42-11.59,4.31a14.56,14.56,0,0,0-4.45,10.93,14.37,14.37,0,0,0,4.27,10.79c2.84,2.75,6.75,4.13,11.77,4.13,7.28,0,12.25-2.84,15-8.53l-8-1.77c-1.28,2.53-3.59,3.77-7,3.77C115.65,38.86,113.16,36.77,112.49,32.64Zm34.6-2.48a6.93,6.93,0,0,1,2.35-5.38,8.54,8.54,0,0,1,5.87-2.09,9.43,9.43,0,0,1,5.9,1.83c1.56,1.24,2.31,3.1,2.31,5.64s-.75,4.39-2.31,5.64a9.49,9.49,0,0,1-5.9,1.82,9,9,0,0,1-5.95-1.91A6.81,6.81,0,0,1,147.09,30.16ZM138,46.94a14.57,14.57,0,0,0,5.15,9.55C146.07,58.85,150,60,155,60a23.23,23.23,0,0,0,6.49-.84,16.88,16.88,0,0,0,5.37-2.62,12.34,12.34,0,0,0,3.73-5,18.45,18.45,0,0,0,1.38-7.41v-28h-8.4v5a11.27,11.27,0,0,0-10.39-5.91,14.39,14.39,0,0,0-10.3,3.91c-2.8,2.62-4.18,6.31-4.18,11s1.38,8.39,4.18,11a14.39,14.39,0,0,0,10.3,3.91,11.27,11.27,0,0,0,10.39-5.91v5c0,2.79-.75,4.92-2.22,6.3a8,8,0,0,1-5.73,2.09A11.31,11.31,0,0,1,149.22,51a5.62,5.62,0,0,1-2.66-4ZM181.29,25a16.69,16.69,0,0,1,4-1.86,16.43,16.43,0,0,1,5.42-.93c3.82,0,5.73,1.24,5.73,3.77v2.89a19.4,19.4,0,0,0-9-1.82,14.61,14.61,0,0,0-3.65.49,15.47,15.47,0,0,0-3.59,1.55,8.48,8.48,0,0,0-2.89,3,8.9,8.9,0,0,0-1.11,4.57,7.59,7.59,0,0,0,3,6.44c2,1.51,4.8,2.27,8.35,2.27,4.35,0,7.28-1.47,8.84-4.4v3.78h8.39V24.25a7.36,7.36,0,0,0-3.77-6.75c-2.54-1.51-6-2.27-10.35-2.27a18.79,18.79,0,0,0-6.66,1.2,21.87,21.87,0,0,0-5.2,2.58Zm3.42,10.8c0-2.22,2.08-3.34,6.17-3.34a15.46,15.46,0,0,1,5.6.94v.18a4.83,4.83,0,0,1-1.91,4.21,8.76,8.76,0,0,1-5.07,1.34,6.11,6.11,0,0,1-3.46-.89A2.74,2.74,0,0,1,184.71,35.8Zm51.12-6.31-6.71,4.84a18.29,18.29,0,0,0,6.57,8.57A17.79,17.79,0,0,0,246.26,46c10.44,0,15.63-4.57,15.63-13.68a11.92,11.92,0,0,0-1.15-5.19,12.66,12.66,0,0,0-3.11-4.09,26.16,26.16,0,0,0-3.73-2.71,27,27,0,0,0-3.77-1.86c-.58-.27-1.51-.63-2.8-1.12s-2.18-.84-2.71-1.06a20.3,20.3,0,0,1-1.87-1.11,3.79,3.79,0,0,1-1.55-1.56,4.89,4.89,0,0,1-.4-2.08,3,3,0,0,1,1.33-2.45,6.33,6.33,0,0,1,3.64-1,8,8,0,0,1,5,1.51A13.93,13.93,0,0,1,254.26,14l6.39-5a14.45,14.45,0,0,0-5.06-6.44A15.22,15.22,0,0,0,246.35,0a16.23,16.23,0,0,0-10.44,3.24,10.39,10.39,0,0,0-4,8.57q0,8.53,11.06,13.06a2.42,2.42,0,0,0,.31.13,1.86,1.86,0,0,1,.31.14c.09,0,.18,0,.31.09,1.42.57,2.54,1.06,3.33,1.46a23.34,23.34,0,0,1,2.58,1.56,6.22,6.22,0,0,1,2,2.17,7,7,0,0,1,.62,3q0,4.66-5.86,4.66a9.73,9.73,0,0,1-6.17-2A16.48,16.48,0,0,1,235.83,29.49Zm27-13.32,14.3,30.15,9.37-16.16,9.9,16.16,14-30.15h-9.32l-5.6,14.61-9-15.55L278,30.73l-5.82-14.56ZM315.41,25a16.69,16.69,0,0,1,4-1.86,16.43,16.43,0,0,1,5.42-.93c3.82,0,5.73,1.24,5.73,3.77v2.89a19.51,19.51,0,0,0-9-1.82,14.48,14.48,0,0,0-3.64.49,15.54,15.54,0,0,0-3.6,1.55,8.56,8.56,0,0,0-2.89,3,9,9,0,0,0-1.11,4.57,7.49,7.49,0,0,0,3,6.44c2,1.51,4.8,2.27,8.35,2.27q6.53,0,8.84-4.4v3.78H339V24.25a7.38,7.38,0,0,0-3.82-6.75c-2.53-1.51-5.95-2.27-10.3-2.27a18.79,18.79,0,0,0-6.66,1.2A20.43,20.43,0,0,0,313,19Zm3.42,10.8c0-2.22,2-3.34,6.17-3.34a15.77,15.77,0,0,1,5.6.94v.18a4.85,4.85,0,0,1-2,4.21,8.61,8.61,0,0,1-5,1.34,6.06,6.06,0,0,1-3.47-.89A2.74,2.74,0,0,1,318.83,35.8Zm52.1-5.33A6.81,6.81,0,0,1,368.66,36a8.73,8.73,0,0,1-5.91,1.91,9.35,9.35,0,0,1-5.9-1.82c-1.56-1.25-2.31-3.11-2.31-5.64s.75-4.4,2.31-5.64a9.35,9.35,0,0,1,5.9-1.82,8.58,8.58,0,0,1,5.87,2.08A6.89,6.89,0,0,1,370.93,30.47Zm-16.39,28v-19a11.27,11.27,0,0,0,10.39,5.91,14.73,14.73,0,0,0,10.35-3.73q4.13-3.73,4.13-11.19t-4.13-11.2a14.78,14.78,0,0,0-10.35-3.73,11.27,11.27,0,0,0-10.39,5.91V16.17h-8.4V58.45Z"/></g></g></g></svg>